<svg width="161" height="101" viewBox="0 0 161 101" fill="none" xmlns="http://www.w3.org/2000/svg">
<path d="M160.01 94.6538C160.01 97.7679 157.592 99.2334 155.138 99.7829C153.306 100.186 152.06 100.259 150.265 99.7829C149.789 99.3433 149.02 98.464 148.433 97.8045V99.5997H143.304V93.8112H148.433C148.433 94.4706 148.617 94.9469 149.239 95.3499C149.972 95.8262 151.254 95.9361 152.573 95.8628C153.562 95.7529 154.845 95.3499 154.881 94.5805C154.881 93.7379 153.819 93.1883 151.95 92.7853C149.423 92.1992 147.847 91.7962 146.308 91.1733C144.623 90.4772 143.744 89.195 143.378 88.1325C142.938 86.5205 143.048 84.4322 144.367 82.9301C145.942 81.0983 147.811 80.7319 150.119 80.7319C151.108 80.7319 151.584 80.8785 152.353 81.025C152.72 81.3914 153.526 82.1241 154.295 82.8202V81.2815H159.974V87.0334H154.295C154.295 85.861 152.94 85.055 151.254 85.0184C149.862 85.0184 148.25 85.2749 148.25 86.3373C148.25 87.6196 150.668 87.876 151.95 88.1325C154.808 88.5721 156.2 89.0851 157.519 89.8178C159.424 90.9169 160.01 92.6754 160.01 94.6538Z" fill="white"/>
<path d="M132.202 100.15C128.649 100.15 125.608 99.124 123.52 96.4129C122.347 94.9108 121.761 92.4928 121.761 90.3679V81.282H127.147V83.7C127.659 83.0772 128.246 82.3811 129.125 81.3919C130.224 80.9523 131.47 80.7691 132.789 80.7691C136.635 80.7691 139.053 82.491 140.409 85.0922C141.508 87.1805 141.471 89.342 141.471 91.7234H127.256C127.33 93.2621 128.172 95.2771 131.909 95.2771C134.217 95.2771 135.793 94.3979 135.939 93.0423H141.362C141.288 97.5486 137.002 100.15 132.202 100.15ZM127.586 87.6201H135.426C135.207 86.4844 134.071 84.9823 131.616 84.9823C129.528 84.9823 128.136 86.118 127.586 87.6201ZM127.806 78.9006H134.327L139.053 74.2478H132.532L131.47 75.2736L127.806 78.9006Z" fill="white"/>
<path d="M120.387 95.0201V100.149C118.299 100.149 115.588 99.8561 114.415 99.2333C113.097 98.5738 111.118 96.9252 111.082 92.4189L111.045 79.0832H108.7V73.9541H116.211V82.8201V90.8069C116.284 92.309 116.321 93.115 116.87 93.9943C117.456 94.9468 119.142 95.0201 120.387 95.0201Z" fill="white"/>
<path d="M104.707 81.2817V94.4709H107.858V99.6H96.5735V94.4709H99.5777V86.4108H96.5735V81.2817H104.707ZM99.541 75.8595C99.541 77.325 100.713 78.4974 102.216 78.4974C102.948 78.4974 103.644 78.2409 104.121 77.7646C104.597 77.2517 104.89 76.5556 104.89 75.8595C104.89 75.0902 104.597 74.4307 104.121 73.9178C103.644 73.4782 102.948 73.1484 102.216 73.1484C101.519 73.1484 100.787 73.4782 100.274 73.9178C99.7975 74.4307 99.541 75.0902 99.541 75.8595Z" fill="white"/>
<path d="M95.4532 73.9541V79.3763H84.4989V83.5895H92.5589V89.0117H84.4989V99.5996H79.0767V73.9541H95.4532Z" fill="white"/>
<path d="M71.8043 93.0275L75.7134 93.4305C74.7865 97.3799 71.7237 99.7173 67.1697 99.7173C61.6889 99.7173 57.7395 96.2112 57.7395 90.6095C57.7395 85.0078 61.7292 80.9778 67.0488 80.9778C72.8521 80.9778 75.8343 85.0078 75.8343 89.8438V91.5767H62.4949C62.6561 94.1962 64.7114 96.05 67.3309 96.05C69.7086 96.05 71.1191 95.0425 71.8043 93.0275ZM62.5755 88.5542H71.1192C70.9579 86.4989 69.7086 84.5242 67.0085 84.5242C64.3487 84.5242 63.0188 86.3377 62.5755 88.5542Z" fill="#1B49FF"/>
<path d="M42.6073 89.7229V99.2337H37.7712V81.4614H42.6073V84.363C43.4939 82.348 45.7507 80.9778 48.4105 80.9778C53.1659 80.9778 54.8988 84.2018 54.8988 88.1512V99.2337H50.0628V89.1184C50.0628 86.378 48.9747 84.8063 46.597 84.8063C44.1387 84.8063 42.6073 86.7407 42.6073 89.7229Z" fill="#1B49FF"/>
<path d="M28.8772 81.461H33.7132V99.2333H28.8772V81.461ZM28.7966 78.5594V73.8442H33.7535V78.5594H28.7966Z" fill="#1B49FF"/>
<path d="M0.989502 86.5385C0.989502 78.7203 6.51062 73.3604 13.7243 73.3604C21.2202 73.3604 25.3711 78.0755 25.8144 84.4832L20.9784 84.6847C20.6157 80.8965 18.3589 77.7934 13.7243 77.7934C9.21073 77.7934 6.22852 81.1786 6.22852 86.5385C6.22852 91.8984 9.21073 95.2836 13.7243 95.2836C18.3589 95.2836 20.6157 92.1805 20.9784 88.3923L25.8144 88.5938C25.3711 95.0418 21.2202 99.7166 13.7243 99.7166C6.51062 99.7166 0.989502 94.3567 0.989502 86.5385Z" fill="#1B49FF"/>
<path d="M51.375 29.2378C51.0315 29.2378 50.731 29.1219 50.4734 28.8901C50.2158 28.6582 50.0527 28.3577 49.984 27.9885C49.7693 26.5545 49.5418 25.318 49.3013 24.279C49.0695 23.24 48.7904 22.3599 48.4641 21.6386C48.1378 20.9173 47.7343 20.3163 47.2534 19.8354C46.7726 19.346 46.1758 18.9467 45.4631 18.6376C44.7504 18.3284 43.8874 18.0665 42.8742 17.8519C41.8696 17.6372 40.6717 17.4354 39.2807 17.2465C38.9029 17.195 38.5937 17.0404 38.3533 16.7828C38.1129 16.5167 37.9927 16.2075 37.9927 15.8555C37.9927 15.4948 38.1129 15.1857 38.3533 14.9281C38.6023 14.6619 38.9157 14.5031 39.2936 14.4516C40.9594 14.2627 42.359 14.0437 43.4924 13.7947C44.6345 13.5371 45.5747 13.1893 46.3132 12.7514C47.0516 12.3049 47.6484 11.7038 48.1035 10.9482C48.5586 10.1926 48.9278 9.23086 49.2112 8.06307C49.4945 6.8867 49.7521 5.43984 49.984 3.72251C50.0441 3.35328 50.2029 3.05275 50.4605 2.8209C50.7181 2.58906 51.023 2.47314 51.375 2.47314C51.7271 2.47314 52.0276 2.58906 52.2766 2.8209C52.5342 3.04416 52.6931 3.3404 52.7532 3.70963C53.0194 5.42696 53.2984 6.86952 53.5904 8.03731C53.8823 9.2051 54.2515 10.1625 54.6981 10.9096C55.1531 11.6566 55.7456 12.2534 56.4755 12.6999C57.2139 13.1378 58.1499 13.4899 59.2833 13.756C60.4168 14.0136 61.8121 14.2455 63.4693 14.4516C63.8386 14.5031 64.1434 14.6619 64.3838 14.9281C64.6328 15.1857 64.7573 15.4948 64.7573 15.8555C64.7573 16.2075 64.6328 16.5167 64.3838 16.7828C64.1348 17.049 63.83 17.2036 63.4693 17.2465C61.8035 17.4354 60.3996 17.6587 59.2576 17.9163C58.1156 18.1653 57.1753 18.5131 56.4369 18.9596C55.6984 19.4061 55.1016 20.0071 54.6465 20.7628C54.1914 21.5098 53.8222 22.4715 53.5389 23.6479C53.2555 24.8157 52.9936 26.2582 52.7532 27.9756C52.7017 28.3448 52.5471 28.6453 52.2895 28.8772C52.0319 29.1176 51.7271 29.2378 51.375 29.2378Z" fill="#1B49FF"/>
<path d="M105.072 63.5715C104.614 63.5715 104.213 63.4169 103.87 63.1078C103.526 62.7987 103.309 62.398 103.217 61.9057C102.931 59.9937 102.628 58.3451 102.307 56.9597C101.998 55.5744 101.626 54.4009 101.191 53.4392C100.756 52.4775 100.218 51.6761 99.5764 51.0349C98.9353 50.3823 98.1396 49.85 97.1893 49.4378C96.239 49.0257 95.0884 48.6765 93.7375 48.3902C92.3979 48.104 90.8008 47.835 88.9461 47.5831C88.4423 47.5144 88.0302 47.3083 87.7096 46.9648C87.389 46.6099 87.2288 46.1978 87.2288 45.7284C87.2288 45.2475 87.389 44.8354 87.7096 44.4919C88.0416 44.137 88.4595 43.9252 88.9633 43.8565C91.1844 43.6046 93.0505 43.3126 94.5618 42.9806C96.0845 42.6372 97.3381 42.1735 98.3227 41.5896C99.3074 40.9942 100.103 40.1928 100.71 39.1853C101.317 38.1778 101.809 36.8955 102.187 35.3385C102.565 33.77 102.908 31.8408 103.217 29.5511C103.297 29.0588 103.509 28.6581 103.853 28.3489C104.196 28.0398 104.602 27.8853 105.072 27.8853C105.541 27.8853 105.942 28.0398 106.274 28.3489C106.617 28.6466 106.829 29.0416 106.909 29.5339C107.264 31.8237 107.636 33.7471 108.026 35.3041C108.415 36.8612 108.907 38.1377 109.503 39.1338C110.109 40.1299 110.899 40.9256 111.873 41.5209C112.857 42.1048 114.105 42.5742 115.616 42.9291C117.128 43.2726 118.988 43.5817 121.198 43.8565C121.69 43.9252 122.096 44.137 122.417 44.4919C122.749 44.8354 122.915 45.2475 122.915 45.7284C122.915 46.1978 122.749 46.6099 122.417 46.9648C122.085 47.3198 121.679 47.5258 121.198 47.5831C118.977 47.835 117.105 48.1326 115.582 48.4761C114.059 48.8081 112.806 49.2718 111.821 49.8671C110.836 50.4625 110.041 51.2639 109.434 52.2714C108.827 53.2675 108.335 54.5497 107.957 56.1182C107.579 57.6753 107.23 59.5987 106.909 61.8885C106.841 62.3808 106.635 62.7815 106.291 63.0906C105.948 63.4112 105.541 63.5715 105.072 63.5715Z" fill="#1B49FF"/>
<path d="M92.3757 1.18568C94.6426 0.587495 96.5161 0.697196 97.9958 1.51576C99.4756 2.33436 100.498 3.87009 101.065 6.12123L101.679 8.43471C101.994 9.67834 101.876 10.7888 101.325 11.7648C100.774 12.7406 99.8453 13.4019 98.5388 13.7482L72.6111 20.6906H100.239C101.577 20.6906 102.639 21.0841 103.427 21.8712C104.207 22.6513 104.599 23.6863 104.606 24.9767C103.673 25.0646 102.8 25.4184 102.061 26.0245L101.891 26.171C101.067 26.9135 100.567 27.8588 100.361 28.8761L100.324 29.0802L100.317 29.1203L100.312 29.1593C100.012 31.3857 99.684 33.2085 99.3376 34.6476C99.0065 36.0123 98.607 36.9949 98.198 37.674C97.8334 38.279 97.3782 38.7328 96.8152 39.0753C96.1725 39.4541 95.2364 39.8237 93.9246 40.1203C92.5459 40.4227 90.7888 40.6999 88.6326 40.9445L88.5994 40.9484L88.5662 40.9533C87.4994 41.0989 86.5146 41.5569 85.7244 42.3312L85.5691 42.4904L85.5662 42.4923C84.7263 43.3924 84.2976 44.525 84.2976 45.7286C84.2977 46.9387 84.7371 48.0476 85.5339 48.9298L85.5505 48.9474L85.5662 48.965L85.7224 49.1251C86.5175 49.9038 87.5054 50.345 88.5496 50.4874H88.5515C90.3572 50.7327 91.8782 50.9906 93.1248 51.257L93.1296 51.2579L93.574 51.3566C94.5821 51.5907 95.3902 51.853 96.0222 52.1271C96.6717 52.4088 97.1411 52.7389 97.4851 53.089L97.4939 53.0988L97.5037 53.1076C97.7384 53.3423 97.97 53.639 98.1912 54.0138C97.9741 54.0248 97.7513 54.0324 97.5232 54.0324H58.7029C56.3416 54.0323 54.5624 53.4415 53.366 52.2609C52.1857 51.096 51.5955 49.3568 51.5955 47.0431V32.1622C52.5887 32.1126 53.5095 31.7283 54.2488 31.0548L54.2498 31.0558C54.2546 31.0515 54.2596 31.0456 54.2644 31.0412C54.2723 31.034 54.281 31.0269 54.2888 31.0197L54.2878 31.0187C54.9758 30.3845 55.4022 29.5914 55.5896 28.7462L55.655 28.382C55.8873 26.7228 56.1335 25.3817 56.3865 24.339L56.3875 24.3341C56.6247 23.3494 56.9001 22.6962 57.1492 22.2872L57.157 22.2745C57.3719 21.9177 57.6315 21.6624 57.9529 21.4679C58.3371 21.2356 58.9508 20.9824 59.8816 20.7794L59.8914 20.7775L59.9021 20.7755C60.9065 20.549 62.1988 20.3399 63.7996 20.1583L63.8074 20.1574H63.8152L64.0105 20.129C64.9809 19.9708 65.849 19.5057 66.5232 18.7853C67.2601 17.9975 67.6881 16.9795 67.6882 15.8556C67.6882 14.7732 67.2948 13.7606 66.5574 12.963H66.5583C66.5469 12.9504 66.5347 12.9384 66.5232 12.9259C66.5124 12.9145 66.5019 12.9021 66.491 12.8908H66.49C65.778 12.1365 64.864 11.6871 63.8738 11.549L63.8308 11.5431L63.2458 11.4679C61.9209 11.291 60.8251 11.0997 59.946 10.9005C59.2298 10.7319 58.6919 10.5382 58.2957 10.3488L92.3757 1.18568ZM60.6863 24.6574L57.3103 30.9386H65.0789L68.6208 24.3742H66.8494L60.6863 24.6574ZM72.3044 30.9386H80.6394L84.1814 24.3742H75.823L72.3044 30.9386ZM87.866 30.9386H95.6111L99.1531 24.3742H91.3835L87.866 30.9386ZM72.3992 10.3712L70.699 17.6203L78.7507 15.4953L80.4509 8.22279L72.3992 10.3712ZM94.0046 4.58607C93.7215 4.649 93.4227 4.72032 93.1082 4.79896L87.4167 6.35658L85.6931 13.6066L93.2019 11.5988L94.8787 4.39662C94.5953 4.45959 94.3037 4.5231 94.0046 4.58607Z" fill="white"/>
</svg>
